<svg version="1.1" xmlns="http://www.w3.org/2000/svg" xmlns:xlink="http://www.w3.org/1999/xlink" xmlns:i="http://ns.adobe.com/AdobeIllustrator/10.0/" xmlns:sketch="http://www.bohemiancoding.com/sketch/ns" height="100%" width="100%" x="0px" y="0px" viewBox="0 0 640 480" xml:space="preserve" preserveAspectRatio="xMidYMid meet" class=""><defs><linearGradient id="sloganGradient3615199868"><stop offset="0.05" stop-color="#B68648" /><stop offset="0.95" stop-color="#FBF3A3" /></linearGradient></defs>{{iconGradient}}<defs><linearGradient id="frameGradient3615199868"><stop offset="0.05" stop-color="#B68648" /><stop offset="0.95" stop-color="#FBF3A3" /></linearGradient></defs><defs><linearGradient id="iconFrameGradient3615199868"><stop offset="0.05" stop-color="#B68648" /><stop offset="0.95" stop-color="#FBF3A3" /></linearGradient></defs><rect x="0px" y="0px" width="100%" height="100%" fill="#000000"/><g class="logo-container-box logoContainerBox" transform="scale(1) translate(0,-0.0000152587890625)"><g class="container_1" transform="scale(1) translate(39.899993896484375,34.95000457763672)"  fill="url(#frameGradient3615199868)"><g>
	<path class="st0" d="M280.1,44.3c71,0,131.2,46,152.5,109.9h11.3C422.2,84.3,357.1,33.6,280.1,33.6S138,84.3,116.3,154.2h11.3   C148.9,90.3,209.1,44.3,280.1,44.3z"/>
	<path class="st0" d="M280.1,365.7c-71.9,0-132.7-47.2-153.3-112.3h-11.2c20.9,71.1,86.6,123.1,164.5,123.1s143.6-51.9,164.5-123.1   h-11.2C412.8,318.5,352,365.7,280.1,365.7z"/>
</g></g><g class="containerBody" transform="scale(0.31086924927737497) translate(709.3716755319149,532.0287566489362)" ><g class="sampleTexts_1" transform="scale(1) translate(-0.000030517578125,30.591529846191406)"><g class="logo--name svgLogoName_1 logoNameBox" transform="scale(1) translate(55.41984844207764,229.83681106567383)" fill="#ffffff"><path d="M22.68-8.06C21.67-1.22 16.78 3.17 12.24 2.16C8.50 1.37 6.41-9.36 16.42-18.29C18.07-19.94 16.49-20.16 15.26-19.94C11.95-19.44 3.53-14.90 0.72-7.99C-1.58-2.09 1.58 5.62 10.87 6.34C19.51 6.98 27.58 2.09 30.46-6.19C34.78-19.01 24.48-28.08 24.34-34.85C24.34-41.40 29.66-45.65 35.71-44.42C39.10-43.70 37.80-35.14 30.67-30.96C28.80-29.52 30.02-28.30 31.32-28.30C34.56-28.30 43.49-32.04 45.94-39.10C47.52-43.56 46.30-48.89 37.80-49.32C29.95-49.68 18.50-44.93 16.13-36.07C13.10-25.34 23.98-17.28 22.68-8.06ZM49.25-29.16C47.88-29.16 45.72-26.57 42.55-22.25C39.10-17.42 36.72-13.03 36.72-7.85C36.72-1.37 41.62 1.08 46.22-1.37C48.17-2.38 50.47-4.32 52.78-6.62C53.42-2.81 56.23 0.07 60.48 0.07C65.45 0.07 70.27-5.69 75.10-13.25C76.10-14.83 74.95-18.65 72.94-16.06C66.82-8.21 63.43-4.39 60.84-4.39C59.47-4.39 58.68-5.18 58.68-6.62C58.68-8.64 59.69-10.80 65.09-18.43C68.47-23.33 69.05-23.76 69.05-25.34C68.98-26.64 65.74-28.66 64.37-28.66C63.07-28.58 60.98-26.06 58.18-21.89C52.78-14.33 48.74-6.84 45.29-5.33C44.06-4.75 42.98-5.33 42.98-6.77C42.98-8.86 43.85-11.23 49.61-18.94C53.14-23.76 53.78-24.19 53.78-25.78C53.78-27.07 50.54-29.16 49.25-29.16ZM69.12-11.23C67.25-8.57 71.42-7.85 72.50-9.36C77.11-15.55 80.57-20.95 82.94-25.27C87.84-25.13 87.41-24.19 83.88-18.65C75.96-6.41 77.54 0.07 84.38 0.07C89.71 0.07 95.11-4.03 101.02-13.32C102.02-14.83 100.58-18.72 98.64-16.06C92.74-7.70 88.13-4.32 85.75-4.32C83.88-4.32 85.03-7.78 87.41-11.81C92.74-21.31 96.05-24.48 96.19-27.22C96.41-30.31 89.06-28.94 85.32-30.02C87.91-35.78 87.91-38.88 85.97-38.88C83.23-38.88 78.55-35.57 76.61-31.61C75.46-29.23 75.02-26.21 78.26-25.49C76.61-22.18 73.51-17.28 69.12-11.23ZM95.04-11.23C93.17-8.57 97.34-7.85 98.42-9.36C103.03-15.55 106.49-20.95 108.86-25.27C113.76-25.13 113.33-24.19 109.80-18.65C101.88-6.41 103.46 0.07 110.30 0.07C115.63 0.07 121.03-4.03 126.94-13.32C127.94-14.83 126.50-18.72 124.56-16.06C118.66-7.70 114.05-4.32 111.67-4.32C109.80-4.32 110.95-7.78 113.33-11.81C118.66-21.31 121.97-24.48 122.11-27.22C122.33-30.31 114.98-28.94 111.24-30.02C113.83-35.78 113.83-38.88 111.89-38.88C109.15-38.88 104.47-35.57 102.53-31.61C101.38-29.23 100.94-26.21 104.18-25.49C102.53-22.18 99.43-17.28 95.04-11.23ZM148.68-20.59C149.98-24.34 147.60-29.38 143.28-29.38C132.98-29.38 122.76-18.00 122.76-10.22C122.76-4.61 127.37 0.07 133.42 0.07C139.32 0.07 146.30-3.46 151.99-12.60C152.93-14.18 151.06-17.71 149.18-15.05C143.14-6.41 138.53-4.54 134.21-4.54C131.47-4.54 130.18-7.42 130.18-9.14C130.18-9.58 130.18-10.08 130.32-10.58C140.40-11.23 147.24-16.63 148.68-20.59ZM143.57-25.92C145.37-24.05 139.03-15.62 131.54-14.04C134.78-20.45 142.56-26.93 143.57-25.92ZM171.94 0C176.54 0 181.30-5.11 186.62-13.32C187.56-14.83 186.41-18.65 184.39-16.06C178.34-8.21 174.89-4.39 172.30-4.39C170.06-4.39 169.42-7.70 172.94-13.25C175.82-17.64 176.90-19.08 176.90-21.24C176.90-24.84 171.79-29.38 168.05-29.38C161.35-29.38 155.66-24.48 151.70-18.72C149.54-15.77 148.32-12.02 148.39-9.50C148.39-5.83 151.99-0.50 155.81-0.50C158.18-0.50 161.42-2.59 164.66-5.40C165.53-2.74 167.69 0 171.94 0ZM169.13-25.92C170.28-25.92 171.07-23.40 168.12-18.94C167.76-18.36 167.40-17.93 167.11-17.42C161.14-8.64 158.26-5.11 156.67-5.11C155.16-5.18 154.80-7.06 155.45-9.50C156.17-12.02 157.25-14.40 159.34-17.42C162.58-21.96 166.68-25.92 169.13-25.92ZM209.95-45.07C203.40-45.07 191.52-34.63 185.04-20.59C179.71-9.00 180.58 2.66 191.81 1.08C198.94 0 205.20-7.78 208.51-12.96C209.81-14.98 208.44-18.72 206.28-15.84C200.38-8.28 195.77-3.67 192.17-3.74C189.07-3.74 188.50-6.98 189.94-12.46C213.77-33.48 214.92-45.07 209.95-45.07ZM193.75-22.54C197.71-31.46 206.86-41.54 209.16-41.54C210.82-41.54 204.84-31.25 191.81-18.00C192.38-19.44 193.03-20.95 193.75-22.54ZM223.99-32.83C222.12-32.83 219.89-36.07 219.89-37.15C219.89-38.66 223.49-43.27 225.43-43.27C226.80-43.27 229.90-40.54 229.90-38.38C229.90-36.36 225.79-32.83 223.99-32.83ZM216.43-28.66C215.06-28.66 212.90-26.06 209.74-21.74C206.86-17.64 204.05-13.03 204.05-8.64C204.05-3.89 207.00 0 211.82 0C216.86 0 221.62-5.76 226.51-13.32C227.52-14.83 226.30-18.65 224.28-16.06C218.23-8.21 214.85-4.39 212.18-4.39C210.82-4.39 210.02-5.18 210.02-6.70C210.02-8.64 211.25-10.94 216.79-18.43C220.39-23.18 220.97-23.62 220.97-25.27C220.97-26.50 217.73-28.66 216.43-28.66ZM225.07-29.52C225.07-27.94 226.66-26.35 229.54-25.42C226.37-20.95 221.04-13.32 221.04-8.64C221.04-3.67 224.35 1.08 229.03 1.08C236.59 1.08 244.08-6.19 248.40-12.96C249.70-14.98 247.75-18.79 245.66-15.84C239.47-7.13 234.50-4.03 229.39-4.03C227.88-4.03 227.02-5.04 227.02-6.70C227.02-8.35 230.83-15.84 233.93-20.16C234.72-21.31 236.02-22.97 237.38-24.70C242.93-24.77 247.18-25.06 247.18-26.42C247.18-27.43 245.02-29.09 241.63-29.95C243.94-32.83 245.74-35.21 245.74-35.71C245.74-36.79 242.14-40.75 241.13-40.75C240.12-40.75 236.81-36.00 233.14-30.60C228.53-30.67 225.07-30.67 225.07-29.52ZM271.44-28.66C270.29-28.66 269.14-27.14 267.26-24.26C261.58-16.42 254.95-6.91 251.50-5.33C250.20-4.75 249.48-6.05 249.77-7.49C250.20-9.50 250.85-11.23 256.61-18.94C260.21-23.76 260.78-24.19 260.78-25.78C260.78-27.07 257.62-29.16 256.25-29.16C254.95-29.16 252.72-26.57 249.62-22.25C246.31-17.64 243.72-11.95 243.72-7.78C243.72-3.60 245.66-1.37 248.26-1.37C249.41-1.37 250.63-1.66 251.93-2.23C244.80 6.91 240.77 6.70 238.97 5.40C236.02 3.31 236.23 6.77 238.10 8.28C244.22 13.10 252.50 8.78 267.41-11.88C274.25-21.38 275.83-23.69 275.83-25.34C275.83-26.57 272.74-28.66 271.44-28.66ZM324.72 4.90C327.67 0.86 330.48-3.02 333.14-6.84C348.41-27.00 363.31-41.83 368.06-42.91C371.30-43.78 370.22-41.76 364.46-34.78C361.51-31.25 356.90-25.99 352.01-19.44C344.81-10.01 341.93-2.95 341.93 1.66C341.93 8.86 348.91 9.94 357.41 4.03C360.07 2.09 359.50 0.29 357.12 1.58C353.88 3.24 349.70 3.38 349.92-0.50C350.14-4.25 352.58-8.28 359.93-17.86C372.17-33.62 379.15-42.77 379.15-45.50C379.15-47.30 376.34-51.19 372.02-50.26C367.34-49.25 360.43-44.50 351.94-35.93C354.89-41.18 356.62-44.86 356.69-46.22C356.83-49.32 353.74-51.19 349.42-50.26C343.44-48.96 334.22-41.76 322.49-28.37C324.65-33.34 326.09-38.02 326.02-42.19C325.94-55.37 306.50-53.21 295.06-39.60C288.50-31.68 289.15-22.32 297.14-21.96C299.66-21.82 302.26-23.98 300.02-24.55C296.86-25.42 297.43-31.25 302.76-37.15C312.62-48.02 320.18-47.74 320.11-42.91C320.26-36.07 313.78-24.26 304.85-10.73C301.54-5.69 299.09-2.09 296.42 1.87C295.20 3.60 301.03 8.50 303.41 4.82C303.62 4.39 303.91 3.96 304.20 3.53C321.91-21.96 342.07-42.70 346.10-42.70C348.55-42.70 347.69-41.26 342.94-34.20C338.69-27.86 331.20-16.85 317.74 1.94C316.37 3.67 322.06 8.35 324.72 4.90ZM390.89 0C395.50 0 400.25-5.11 405.58-13.32C406.51-14.83 405.36-18.65 403.34-16.06C397.30-8.21 393.84-4.39 391.25-4.39C389.02-4.39 388.37-7.70 391.90-13.25C394.78-17.64 395.86-19.08 395.86-21.24C395.86-24.84 390.74-29.38 387-29.38C380.30-29.38 374.62-24.48 370.66-18.72C368.50-15.77 367.27-12.02 367.34-9.50C367.34-5.83 370.94-0.50 374.76-0.50C377.14-0.50 380.38-2.59 383.62-5.40C384.48-2.74 386.64 0 390.89 0ZM388.08-25.92C389.23-25.92 390.02-23.40 387.07-18.94C386.71-18.36 386.35-17.93 386.06-17.42C380.09-8.64 377.21-5.11 375.62-5.11C374.11-5.18 373.75-7.06 374.40-9.50C375.12-12.02 376.20-14.40 378.29-17.42C381.53-21.96 385.63-25.92 388.08-25.92ZM417.53-33.26C419.26-33.26 422.06-29.45 421.70-27.22C421.56-25.92 418.75-25.20 418.25-20.88C418.03-18.65 418.25-15.84 417.89-12.53C416.88-3.31 410.26 1.37 403.99 0.72C398.95-0.07 397.08-4.32 397.51-8.50C398.02-12.82 400.54-16.27 403.70-16.70C415.08-27.00 414.65-33.26 417.53-33.26ZM406.87-14.04L406.30-13.46C405.14-12.46 403.92-11.30 402.70-10.08C402.26-9.22 402.05-8.35 401.98-7.70C401.69-5.62 402.77-4.25 404.57-4.03C407.16-3.74 410.26-6.34 410.76-10.73C410.98-13.03 411.05-15.41 410.83-17.57ZM436.10-33.26C437.83-33.26 440.64-29.45 440.28-27.22C440.14-25.92 437.33-25.20 436.82-20.88C436.61-18.65 436.82-15.84 436.46-12.53C435.46-3.31 428.83 1.37 422.57 0.72C417.53-0.07 415.66-4.32 416.09-8.50C416.59-12.82 419.11-16.27 422.28-16.70C433.66-27.00 433.22-33.26 436.10-33.26ZM425.45-14.04L424.87-13.46C423.72-12.46 422.50-11.30 421.27-10.08C420.84-9.22 420.62-8.35 420.55-7.70C420.26-5.62 421.34-4.25 423.14-4.03C425.74-3.74 428.83-6.34 429.34-10.73C429.55-13.03 429.62-15.41 429.41-17.57ZM462.38 0C466.99 0 471.74-5.11 477.07-13.32C478.01-14.83 476.86-18.65 474.84-16.06C468.79-8.21 465.34-4.39 462.74-4.39C460.51-4.39 459.86-7.70 463.39-13.25C466.27-17.64 467.35-19.08 467.35-21.24C467.35-24.84 462.24-29.38 458.50-29.38C451.80-29.38 446.11-24.48 442.15-18.72C439.99-15.77 438.77-12.02 438.84-9.50C438.84-5.83 442.44-0.50 446.26-0.50C448.63-0.50 451.87-2.59 455.11-5.40C455.98-2.74 458.14 0 462.38 0ZM459.58-25.92C460.73-25.92 461.52-23.40 458.57-18.94C458.21-18.36 457.85-17.93 457.56-17.42C451.58-8.64 448.70-5.11 447.12-5.11C445.61-5.18 445.25-7.06 445.90-9.50C446.62-12.02 447.70-14.40 449.78-17.42C453.02-21.96 457.13-25.92 459.58-25.92ZM501.05-21.89C501.05-19.73 499.61-17.64 496.80-13.25C482.33 9.36 474.34 13.18 468.07 8.28C466.20 6.77 465.98 3.31 468.94 5.40C470.81 6.70 474.26 6.98 481.54-2.52C480.60-2.16 479.74-1.94 478.94-1.94C475.13-1.94 472.82-5.83 472.82-9.50C472.75-12.02 473.98-15.77 476.14-18.72C480.10-24.48 485.78-29.38 492.48-29.38C494.14-29.38 496.08-28.44 497.74-27.14C499.25-25.85 501.05-24.05 501.05-21.89ZM491.83-17.86L492.98-19.58C494.57-21.96 494.93-23.62 494.93-24.41C494.93-25.13 494.14-25.92 493.56-25.92C491.11-25.92 487.01-21.96 483.77-17.42C481.68-14.40 480.60-12.02 479.88-9.50C479.23-7.06 479.74-5.90 481.25-5.83C482.90-5.83 485.71-8.93 491.83-17.86ZM525.60-20.59C526.90-24.34 524.52-29.38 520.20-29.38C509.90-29.38 499.68-18.00 499.68-10.22C499.68-4.61 504.29 0.07 510.34 0.07C516.24 0.07 523.22-3.46 528.91-12.60C529.85-14.18 527.98-17.71 526.10-15.05C520.06-6.41 515.45-4.54 511.13-4.54C508.39-4.54 507.10-7.42 507.10-9.14C507.10-9.58 507.10-10.08 507.24-10.58C517.32-11.23 524.16-16.63 525.60-20.59ZM520.49-25.92C522.29-24.05 515.95-15.62 508.46-14.04C511.70-20.45 519.48-26.93 520.49-25.92Z"/></g><g id="" class="logo--name svgSloganText_1 sloganBox" transform="scale(1) translate(320,254.4)" fill="url(#sloganGradient3615199868)"><path d=""/></g></g></g></g></svg>